PLOT

A young woman's world is turned upside down after a tragic accident steals away her boyfriend. The walls
of reality continue to crumble as the troubled woman and a fellow victim try to track down their loved
ones at a mysterious hospital which should not exist.
 
http://www.imdb.com/title/tt0451187/

Encoded By .......: BigPerm
Runtime ..........: 1h 33mn
File Size ........: 874 MB
Resolution .......: 640 x 352
IMDb URL .........: http://www.imdb.com/title/tt0451187/
Genre ............: Horror,Mystery,Thriller
Language .........: English
Subtitles ........: None
Video
ID : 0
Format : MPEG-4 Visual
Format profile : Advanced Simple@L5
Format settings, BVOP : Yes
Format settings, QPel : No
Format settings, GMC : No warppoints
Format settings, Matrix : Default (H.263)
Muxing mode : Packed bitstream
Codec ID : XVID
Codec ID/Hint : XviD
Duration : 1h 33mn
Bit rate : 846 Kbps
Width : 640 pixels
Height : 352 pixels
Display aspect ratio : 16:9
Frame rate : 23.976 fps
Color space : YUV
Chroma subsampling : 4:2:0
Bit depth : 8 bits
Scan type : Progressive
Compression mode : Lossy
Bits/(Pixel*Frame) : 0.157
Stream size : 567 MiB (65%)
Writing library : XviD 1.2.1 (UTC 2008-12-04)
Audio
ID : 1
Format : AC-3
Format/Info : Audio Coding 3
Mode extension : CM (complete main)
Codec ID : 2000
Duration : 1h 33mn
Bit rate mode : Constant
Bit rate : 448 Kbps
Channel(s) : 6 channels
Channel positions : Front: L C R, Side: L R, LFE
Sampling rate : 48.0 KHz
Bit depth : 16 bits
Compression mode : Lossy
Stream size : 300 MiB (34%)
Alignment : Split accross interleaves
Interleave, duration : 42 ms (1.00 video frame)
Interleave, preload duration : 500 ms
 
http://www.shotpix.com/images/96510670363255431988.png
 
http://www.shotpix.com/images/95703523624042177990.png
 
http://www.shotpix.com/images/23345498410238173221.png
 
http://www.shotpix.com/images/84903931616954315235.png
 
http://www.shotpix.com/images/82666022817287384694.png